# xmcd
#
# Track frame offsets:
#	150
#	21132
#	38849
#	55959
#	70444
#	87083
#	107197
#	125771
#	144242
#	158322
#	181910
#	189218
#	207066
#	228022
#	237834
#	255412
#
# Disc length: 3809 seconds
#
# Revision: 0
# Processed by: cddbd v1.5.1PL0 Copyright (c) Steve Scherf et al.
# Submitted via: EasyCDDAExtractor 7.7.1.2
#
DISCID=c60edf10
DTITLE=MIKI NERVIO and THE BLUESMAKERS - Namberguán Rural Blus
DYEAR=1998
DGENRE=Blues
TTITLE0=Kansas City [Memphis Jug Band]
TTITLE1=You gotta change your mind [Blind Boy Fuller]
TTITLE2=I want you by my side [Jazz Gillum]
TTITLE3=Hawaian boogie [Elmore James]
TTITLE4=Ain't got nobody [Graham Williams]
TTITLE5=A resaca do Pelícano
TTITLE6=Everybody's fishing [William Love]
TTITLE7=I can't ve happy without my ukelele
TTITLE8=Rocking Mamouth
TTITLE9=O Himno
TTITLE10=A lei do cucharón (bonus track)
TTITLE11=Crazy about you [State Streets Boys]
TTITLE12=Zenorias en ensalada
TTITLE13=Eagle riding Papa [Big Bill Broonzy]
TTITLE14=Devil's Blues
TTITLE15=My baby she left me
EXTD=
EXTT0=
EXTT1=
EXTT2=
EXTT3=
EXTT4=
EXTT5=
EXTT6=
EXTT7=
EXTT8=
EXTT9=
EXTT10=
EXTT11=
EXTT12=
EXTT13=
EXTT14=
EXTT15=
PLAYORDER=
